<svg xmlns="http://www.w3.org/2000/svg" width="256" height="256"><path fill-opacity=".016" d="M0 128.004v128.004l128.25-.254 128.25-.254.254-127.75L257.008 0H0v128.004m.485.496c0 70.4.119 99.053.265 63.672.146-35.38.146-92.98 0-128C.604 29.153.485 58.1.485 128.5" fill="#1976D2" fill-rule="evenodd"/><path fill-opacity=".386" d="M1.607 20.25c.912 1.788 4.682 8.425 8.377 14.75 3.695 6.325 26.36 45.525 50.367 87.111L104 197.721v19.068c0 16.001.253 19.321 1.571 20.64 2.323 2.322 40.894 2.335 44.206.014 2.167-1.517 2.223-2.044 2.223-20.912v-19.356l15.827-27.337A96814.853 96814.853 0 0 0 217.989 83c18.885-32.725 35.322-61.075 36.528-63l2.193-3.5-49.717.268-49.716.268-14.389 24.969c-7.913 13.732-14.67 24.974-15.014 24.982-.344.007-7.094-11.229-15-24.968L98.5 17.037l-49.276-.018L-.051 17l1.658 3.25m50.06 171.417c-.367.366-.667 10.701-.667 22.964 0 21.023.111 22.358 1.934 23.334 3.059 1.637 41.232 1.366 43.522-.309 1.687-1.234 1.839-3.126 1.836-22.863-.002-11.835-.32-22.029-.707-22.655-.769-1.245-44.694-1.696-45.918-.471m106.559 1.064c-.399.973-.726 11.143-.726 22.6 0 19.466.127 20.924 1.941 22.25 2.639 1.929 41.276 2.077 43.888.168 1.541-1.127 1.684-3.482 1.441-23.75l-.27-22.499-22.774-.269c-20.989-.248-22.831-.13-23.5 1.5m-99.559 5.936c-.367.366-.667 7.791-.667 16.5V231h33v-33H75.167c-8.709 0-16.134.3-16.5.667M165 214.5V231h32l.168-3.75c.501-11.171.576-24.088.154-26.5l-.481-2.75H165v16.5m-96.288-5.716C66.121 211.416 64 214.1 64 214.75c0 1.512 5.687 8.012 8.175 9.344 2.703 1.446 5.825.184 5.825-2.357 0-1.17-1.13-3.307-2.511-4.748l-2.51-2.621 2.51-2.358c2.733-2.567 3.188-4.933 1.311-6.81-1.962-1.962-3.138-1.441-8.088 3.584m109.861-3.215c-1.692 1.693-1.021 3.985 1.872 6.386 2.12 1.759 1.967 2.766-.941 6.223-1.985 2.358-2.285 3.362-1.465 4.894.567 1.061 1.803 1.925 2.746 1.922 2.03-.006 11.215-8.43 11.215-10.285 0-1.581-9.132-10.709-10.713-10.709-.629 0-1.85.706-2.714 1.569m-66.561 15.681L112 231h11.147l-2.997-5.25c-1.648-2.887-4.15-7.275-5.561-9.75l-2.565-4.5-.012 9.75m26.417-.552c-2.711 4.784-5.079 9.059-5.262 9.5-.184.441 2.179.802 5.25.802H144v-9.5c0-5.225-.144-9.5-.321-9.5-.177 0-2.539 3.914-5.25 8.698" fill="#1976D2" fill-rule="evenodd"/><path fill-opacity=".546" d="M51.297 17.732c2.349 4.128 58.433 101.2 62.842 108.768l5.825 10-6.213.304c-9.963.487-9.751-.041-9.751 24.28 0 17.551.244 21.017 1.571 22.345 2.345 2.344 42.513 2.344 44.858 0 1.324-1.325 1.571-4.742 1.571-21.778 0-24.692.016-24.651-9.557-24.651-3.544 0-6.443-.208-6.443-.463 0-.254 4.651-8.467 10.336-18.25 24.999-43.019 56.685-98.179 57.262-99.683.575-1.498-1.416-1.618-22.728-1.373l-23.359.269-14.505 25.23c-7.978 13.877-14.846 25.126-15.262 24.999-.415-.128-7.226-11.482-15.135-25.231L98.23 17.5l-23.685-.268c-13.027-.148-23.489.077-23.248.5M112 161.5V178h32v-33h-6.385c-5.815 0-6.541.238-8.134 2.669l-1.748 2.669-1.399-2.669c-1.295-2.473-1.874-2.669-7.866-2.669H112v16.5m10.113-6.115c-4.457 4.541-4.985 7.037-1.899 8.98 1.375.866 2.313.504 4.75-1.83l3.036-2.909 3.036 2.909c2.437 2.334 3.375 2.696 4.75 1.83.943-.594 1.869-1.87 2.059-2.837.409-2.079-7.493-10.528-9.845-10.528-.871 0-3.52 1.973-5.887 4.385M52.2 192.2c-1.699 1.699-1.699 42.901 0 44.6 1.699 1.699 42.901 1.699 44.6 0 1.699-1.699 1.699-42.901 0-44.6-1.699-1.699-42.901-1.699-44.6 0m53.135.05c-.52.715-.679 10.671-.372 23.25l.537 22h45l.504-21.5c.278-11.825.149-22.287-.285-23.25-.717-1.589-2.797-1.75-22.632-1.75-16.322 0-22.072.316-22.752 1.25m53.865-.05c-.86.86-1.2 7.354-1.2 22.893 0 18.859.207 21.772 1.582 22.3 3.149 1.209 42.95.675 44.218-.593 1.699-1.699 1.699-42.901 0-44.6-1.699-1.699-42.901-1.699-44.6 0M58 214.5V231h33v-33H58v16.5m53.656-6.75c-.355 5.363-.648 12.787-.651 16.5L111 231h34l-.005-6.75c-.003-3.713-.296-11.137-.651-16.5l-.646-9.75h-31.396l-.646 9.75M165 214.5V231h33v-33h-33v16.5m-96.143-5.643c-5.703 5.703-5.671 6.07 1.09 12.621 3.364 3.261 4.416 3.783 5.829 2.893 2.631-1.657 2.572-3.804-.196-7.094l-2.515-2.989 2.467-2.318c3.011-2.829 3.164-5.527.398-7.008-1.808-.967-2.703-.474-7.073 3.895m110.893-3.777c-2.472 1.44-2.172 4.175.761 6.93l2.51 2.358-2.51 2.621c-2.753 2.873-3.156 4.966-1.311 6.811 1.811 1.811 2.467 1.548 7.322-2.927 2.749-2.534 4.478-4.995 4.478-6.373 0-1.378-1.729-3.839-4.478-6.373-2.462-2.27-4.6-4.113-4.75-4.097-.149.017-1.059.489-2.022 1.05m-61.083 6.587c-1.67 1.669-.325 5.106 3.541 9.045 2.315 2.358 4.8 4.288 5.523 4.288.722 0 3.35-1.877 5.839-4.171 4.748-4.377 5.426-7.187 2.216-9.199-1.372-.86-2.318-.495-4.75 1.835L128 216.374l-2.805-2.687c-2.73-2.616-5.176-3.373-6.528-2.02" fill="#1976D2" fill-rule="evenodd"/><path fill-opacity=".971" d="m111.5 137.846-6 .654v45h45l.27-21.93c.149-12.061-.123-22.323-.604-22.804-1.097-1.097-30.605-1.799-38.666-.92M111 161v17h34v-34h-34v17m11.286-5.549c-4.604 4.603-5.321 7.726-1.926 8.38 1.019.196 3.13-.884 4.739-2.426l2.901-2.779 2.805 2.687c3.203 3.069 5.689 3.448 6.625 1.009.447-1.166-.805-3.149-4.105-6.5-2.613-2.652-5.163-4.822-5.669-4.822-.506 0-2.922 2.003-5.37 4.451M56.33 191.664l-4.169.443-.705 7.515c-.83 8.857-.182 35.394.907 37.156.557.901 6.386 1.222 22.221 1.222H96.05l1.031-2.713c1.166-3.067.872-41.673-.327-42.868-.832-.83-33.905-1.447-40.424-.755m50.42.416c-1.582.922-1.75 3.115-1.75 22.863 0 18.995.206 21.922 1.582 22.45 3.145 1.207 41.95.675 43.218-.593.858-.858 1.2-7.259 1.2-22.465 0-20-.115-21.326-1.934-22.3-2.548-1.363-39.966-1.323-42.316.045m56.25-.248-4.5.668-.27 21.373c-.189 14.923.074 21.789.872 22.75.904 1.089 5.46 1.374 21.77 1.362 11.346-.009 21.303-.443 22.128-.964 1.257-.795 1.5-4.421 1.5-22.402 0-11.799-.319-21.772-.709-22.162-.949-.949-35.089-1.472-40.791-.625M57.777 201.25c-.404 2.939-.377 15.397.057 26.524l.166 4.274 16.75-.274 16.75-.274.274-16.75.274-16.75H58.223l-.446 3.25m53.449 13.5.274 16.75h33l.274-16.75.274-16.75h-34.096l.274 16.75m53 0 .274 16.75h33l.274-16.75.274-16.75h-34.096l.274 16.75m-95.342-5.5c-2.136 2.337-3.884 4.945-3.884 5.797 0 2.265 7.234 8.953 9.685 8.953 3.179 0 3.522-2.601.773-5.867-3.033-3.605-3.032-3.662.072-7.351 1.977-2.349 2.278-3.309 1.377-4.394-1.922-2.315-3.952-1.591-8.023 2.862m109.692-2.587c-.404 1.051.292 2.634 1.893 4.305 1.392 1.453 2.531 3.042 2.531 3.532 0 .49-1.139 2.079-2.531 3.532-2.793 2.916-2.486 5.968.599 5.968 1.998 0 9.932-7.423 9.932-9.291 0-1.793-8.236-9.709-10.101-9.709-.927 0-1.972.748-2.323 1.663m-60.243 6.911C117.618 215.439 125.555 224 128 224c2.546 0 10.182-8.362 9.429-10.324-.895-2.334-4.358-2.091-7.115.498L128 216.349l-2.314-2.175c-2.707-2.542-6.489-2.851-7.353-.6" fill="#1976D2" fill-rule="evenodd"/></svg>